# xmcd
#
# Track frame offsets: 
#        150
#        9517
#        22945
#        40525
#        63932
#        75987
#        94992
#        106812
#        133647
#
# Disc length: 2056 seconds
#
# Revision: 0
# Processed by: cddbd v1.4PL0 Copyright (c) Steve Scherf et al.
# Submitted via: ExactAudioCopy v0.90b4
#
DISCID=5b080609
DTITLE=Brother Jack Mcduff - Tobacco Road
DYEAR=1967
DGENRE=Funk
TTITLE0=Teardrops From My Eyes
TTITLE1=Tobacco Road
TTITLE2=The Shadow Of Your Smile
TTITLE3=Can't Get Satisfied
TTITLE4=Blowin' In The Wind
TTITLE5=And The Angels Sing
TTITLE6=This Bitter Earth
TTITLE7=Alexander's Ragtime Band
TTITLE8=Wade In The Water
EXTD=
EXTT0=
EXTT1=
EXTT2=
EXTT3=
EXTT4=
EXTT5=
EXTT6=
EXTT7=
EXTT8=
PLAYORDER=
